<?xml version="1.0" standalone="no"?>
<!DOCTYPE svg PUBLIC "-//W3C//DTD SVG 20010904//EN"
 "http://www.w3.org/TR/2001/REC-SVG-20010904/DTD/svg10.dtd">
<svg version="1.0" xmlns="http://www.w3.org/2000/svg"
 width="184.000000pt" height="184.000000pt" viewBox="0 0 184.000000 184.000000"
 preserveAspectRatio="xMidYMid meet">
<metadata>
Created by potrace 1.14, written by Peter Selinger 2001-2017
</metadata>
<g transform="translate(0.000000,184.000000) scale(0.100000,-0.100000)"
fill="#000000" stroke="none">
<path d="M865 1617 c-40 -19 -58 -41 -90 -112 -15 -33 -38 -85 -52 -115 -14
-30 -31 -68 -38 -85 -7 -16 -38 -85 -69 -153 -31 -68 -56 -125 -56 -127 0 -2
-15 -36 -34 -77 -19 -40 -64 -140 -101 -223 -94 -210 -102 -229 -127 -282 -30
-64 -31 -141 -2 -180 41 -55 96 -75 164 -60 63 14 78 33 154 199 l45 98 273
-3 272 -2 52 -113 c57 -128 85 -163 141 -180 45 -13 73 -10 115 15 44 26 69
64 75 114 4 39 -5 66 -81 237 -47 105 -125 279 -172 385 -47 105 -108 242
-136 302 -27 61 -62 137 -76 170 -51 115 -77 159 -104 178 -34 25 -113 32
-153 14z m136 -666 l66 -148 -121 -1 c-67 0 -128 2 -137 4 -14 4 -10 16 21 82
20 42 49 107 65 145 16 37 32 67 35 67 3 0 35 -67 71 -149z"/>
</g>
</svg>
